<svg xmlns="http://www.w3.org/2000/svg" version="1.1" viewBox="-5.0 -10.0 110.0 135.0">
 <path d="m61.859 41.789c0.16797 0.12891 0.34375 0.24609 0.53516 0.35547 0.18359 0.10547 0.375 0.19531 0.56641 0.28125-0.35156 0.15625-0.71094 0.33594-1.0547 0.54297 0.015625-0.40234-0.03125-0.8125-0.046875-1.1797zm4.6758-10.449c0.65625-0.019532 1.2852 0.12891 1.8359 0.44531 1.957 1.1289 2.4883 4.2188 1.0117 6.7773-0.625 1.082-1.4648 1.875-2.3945 2.3086-0.10547 0.046875-0.25 0.10938-0.34766 0.15234-1.1758 0.46094-2.4297 0.40625-3.4922-0.20313-1.0547-0.60937-1.7422-1.6719-1.9141-2.918-0.015625-0.125-0.035156-0.27734-0.046875-0.375-0.074219-1.0234 0.17969-2.1523 0.80469-3.2305 1.0586-1.8398 2.875-2.918 4.543-2.957zm0.035156-1.5547c-2.2695 0.023438-4.5898 1.4688-5.9023 3.7422-0.76172 1.3203-1.0742 2.75-0.98438 4.1328 0.09375 1.3789 0.45703 2.7539 0.62109 4.0117 0.15625 1.2578 0.12109 2.3438-0.44922 3.3398l-0.78906 1.3594-7.1484-2.6055c-0.10938-0.039063-0.20703-0.12109-0.26562-0.23047l-3.7852-6.4414c-0.41016-0.69922-1.4805-1.5859-2.8984-1.8477-1.418-0.26562-2.7539-0.10547-3.9688 1.3672-2.3047 2.8008-3.5234 5.8789-4.1328 8.9453-0.375 1.9023-0.28125 4.1328 0.13281 6.3086l1.6992 9c0.042969 0.21484-0.050781 0.42969-0.23047 0.54687l-9.0742 5.6758c-0.47266 0.30078-0.82812 0.72266-1.0586 1.1172-0.19531 0.34375-0.11719 0.74219 0.20703 1.2617l2.2266 3.5625c0.28906 0.46484 0.66016 0.58594 1.0977 0.50781 0.44141-0.074218 0.9375-0.40625 1.2578-0.98437l1.2734-2.3242c0.050781-0.10547 0.14453-0.17578 0.22656-0.22656l8.4492-5.2812c0.92188-0.57422 1.3945-1.6484 1.1914-2.7148l-0.78516-4.1133-0.36328-1.8594 4.0977 4.1445c0.09375 0.097656 0.14453 0.23828 0.14453 0.375v11.766 0.035157c0 0.63281 0.14453 1.1367 0.38672 1.4531 0.23828 0.3125 0.5625 0.49219 1.168 0.49219h4.2188c0.54297 0 0.83984-0.24219 1.0078-0.65625 0.17188-0.41797 0.15625-1.0117-0.16016-1.5859l-1.3008-2.3203c-0.046876-0.082031-0.070313-0.17578-0.070313-0.25391v-10.23c0-0.6875-0.27734-1.3438-0.76562-1.8359l-7.4766-7.5859c-0.11719-0.11719-0.15625-0.28906-0.15234-0.39844 0.10938-2.3672 0.52734-4.3086 1.6484-6.2109l0.625-0.99609 2.3438 3.9688c0.21875 0.375 0.56641 0.67188 0.97656 0.82031l8.4023 3.0664c0.98437 0.36328 2.0664-0.14453 2.4258-1.1367 0.23047-0.625 0.10547-1.2891-0.27344-1.7812l0.80469-1.3945c0.57812-0.99609 1.5039-1.5703 2.668-2.0547 1.168-0.49219 2.5391-0.86328 3.7852-1.4688 1.2461-0.60547 2.3242-1.5977 3.0898-2.918 1.8203-3.1641 1.2852-7.2266-1.5742-8.8789-0.80469-0.46094-1.6836-0.67188-2.5703-0.66406z"/>
 <path d="m66.328 49.227c-1.5508 0.26563-2.6094 1.7578-2.3359 3.3086 0.26953 1.5508 1.7695 2.5977 3.3203 2.3281 1.5508-0.26562 2.6055-1.7617 2.332-3.3125-0.26953-1.543-1.7656-2.5977-3.3164-2.3242z"/>
 <path d="m47.457 25.77c2.5742-0.44531 5.0234 1.2734 5.4688 3.8477 0.45312 2.5742-1.2734 5.0234-3.8477 5.4688-2.5703 0.45312-5.0156-1.2734-5.4688-3.8438-0.44922-2.5703 1.2695-5.0195 3.8477-5.4727z"/>
<text x="0.0" y="117.5" font-size="5.0" font-weight="bold" font-family="Arbeit Regular, Helvetica, Arial-Unicode, Arial, Sans-serif" fill="#000000">Created by Cuputo</text><text x="0.0" y="122.5" font-size="5.0" font-weight="bold" font-family="Arbeit Regular, Helvetica, Arial-Unicode, Arial, Sans-serif" fill="#000000">from Noun Project</text></svg>