<svg xmlns="http://www.w3.org/2000/svg" viewBox="0 0 32 40" x="0px" y="0px"><title>07 search</title><g data-name="07 search"><path d="M19,2a11,11,0,0,0-8.45,18L8.87,21.72a3,3,0,0,0-3.41.57L2.79,25A3,3,0,0,0,7,29.21l2.67-2.67a3,3,0,0,0,.57-3.41L12,21.45A11,11,0,1,0,19,2Zm0,19a8,8,0,1,1,8-8A8,8,0,0,1,19,21Z"/></g><text x="0" y="47" fill="#000000" font-size="5px" font-weight="bold" font-family="'Helvetica Neue', Helvetica, Arial-Unicode, Arial, Sans-serif">Created by ALga_design</text><text x="0" y="52" fill="#000000" font-size="5px" font-weight="bold" font-family="'Helvetica Neue', Helvetica, Arial-Unicode, Arial, Sans-serif">from the Noun Project</text></svg>