<svg xmlns="http://www.w3.org/2000/svg" xmlns:xlink="http://www.w3.org/1999/xlink" viewBox="0 0 41 51.25" version="1.1" x="0px" y="0px"><title>svg/202-SRB--Serbia</title><desc>Created with Sketch.</desc><g stroke="none" stroke-width="1" fill="none" fill-rule="evenodd"><g transform="translate(-148.000000, -1306.000000)"><g transform="translate(53.773807, 27.938924)" fill="#000000" fill-rule="nonzero"><path d="M102.726193,1280.06108 L126.726193,1280.06108 C130.316044,1280.06108 133.226193,1282.97123 133.226193,1286.56108 L133.226193,1310.56108 C133.226193,1314.15093 130.316044,1317.06108 126.726193,1317.06108 L102.726193,1317.06108 C99.1363425,1317.06108 96.2261934,1314.15093 96.2261934,1310.56108 L96.2261934,1286.56108 C96.2261934,1282.97123 99.1363425,1280.06108 102.726193,1280.06108 Z M102.726193,1281.06108 C99.6886273,1281.06108 97.2261934,1283.52351 97.2261934,1286.56108 L97.2261934,1310.56108 C97.2261934,1313.59864 99.6886273,1316.06108 102.726193,1316.06108 L126.726193,1316.06108 C129.76376,1316.06108 132.226193,1313.59864 132.226193,1310.56108 L132.226193,1286.56108 C132.226193,1283.52351 129.76376,1281.06108 126.726193,1281.06108 L102.726193,1281.06108 Z"/></g><g transform="translate(149.500000, 1312.500000)" fill="#000000" fill-rule="nonzero"><polygon points="0.5 8.5 0.5 7.5 37.5 7.5 37.5 8.5"/><polygon points="19.5 20.5 19.5 19.5 37.5 19.5 37.5 20.5"/><polygon points="0.5 20.5 0.5 19.5 7.4 19.5 7.4 20.5"/><g transform="translate(7.000000, 0.000000)"><path d="M0,7.85714286 L13,7.85714286 L13,18.5 C13,22.0898509 10.0898509,25 6.5,25 C2.91014913,25 4.39629938e-16,22.0898509 0,18.5 L0,7.85714286 Z M10.1111111,20.7142857 L9.38888889,22.1428571 L10.1111111,23.5714286 L10.8333333,22.1428571 L10.1111111,20.7142857 Z M2.88888889,20.7142857 L2.16666667,22.1428571 L2.88888889,23.5714286 L3.61111111,22.1428571 L2.88888889,20.7142857 Z M9.06445193,23.9285714 C9.23041984,23.2562677 7.7043825,19.4670977 7.88495165,19.5545081 C9.77267571,20.4683224 11.8029931,20.324765 12.5627453,20.422213 C12.2392303,18.9620512 13.0913463,14.6624338 12.7078566,11.7258412 C12.4015335,9.38015571 11.1330252,8.77928546 10.6471858,9.09290067 C11.5297795,10.6786835 9.94569685,12.0357449 9.23041984,12.8241263 C7.91384121,11.9243877 8.03438137,11.0191627 8.23244299,10.6786835 C9.38888889,10.9403512 9.83926517,10.4130497 10.0148351,9.86714649 C10.275599,9.05634772 9.06430947,8.81244139 8.62444982,8.8540856 C7.60164756,8.95092057 6.89349762,9.80908251 6.5,11.4285714 C6.10344546,9.80908251 5.39529552,8.95092057 4.37249326,8.8540856 C3.93263361,8.81244139 2.72134411,9.05634772 2.98210803,9.86714649 C3.15767792,10.4130497 3.60805419,10.9403512 4.76450009,10.6786835 C4.96256172,11.0191627 5.08310188,11.9243877 3.76652325,12.8241263 C3.05124623,12.0357449 1.46716358,10.6786835 2.34975728,9.09290067 C1.86391784,8.77928546 0.595409578,9.38015571 0.289086475,11.7258412 C-0.0944031936,14.6624338 0.757712817,18.9620512 0.434197747,20.422213 C1.19394994,20.324765 3.22426737,20.4683224 5.11199143,19.5545081 C5.29256058,19.4670977 3.76652325,23.2562677 3.93249115,23.9285714 C4.75640086,24.3073044 5.61223714,24.4951085 6.5,24.4919839 C7.25329853,24.4893326 8.10811584,24.3015284 9.06445193,23.9285714 Z"/><path d="M5.99444665,12.8571429 L5.99444665,15.2143206 L3.61111111,15.2143206 L3.61111111,12.8571429 L5.99444665,12.8571429 Z M7.00555774,12.8571429 L9.38888889,12.8571429 L9.38888889,15.2143206 L7.00555774,15.2143206 L7.00555774,12.8571429 Z M9.38888889,16.2143206 L9.38888889,16.3968254 C9.38888889,17.8198482 8.35999956,19.002561 7.00555774,19.241627 L7.00555774,16.2143206 L9.38888889,16.2143206 Z M5.99444665,19.2416278 C4.64000267,19.0025636 3.61111111,17.8198497 3.61111111,16.3968254 L3.61111111,16.2143206 L5.99444665,16.2143206 L5.99444665,19.2416278 Z"/><path d="M6.5,0 C6.69943616,0 6.86111111,0.159898304 6.86111111,0.357142857 L6.86111111,1.07142857 C6.86111111,1.26867312 6.69943616,1.42857143 6.5,1.42857143 C6.30056384,1.42857143 6.13888889,1.26867312 6.13888889,1.07142857 L6.13888889,0.357142857 C6.13888889,0.159898304 6.30056384,0 6.5,0 Z"/><path d="M2.14083881,5.58164619 L1.69501,4.47932221 C1.5783231,4.19079357 1.66364213,3.86074992 1.90603555,3.66301831 C3.14653938,2.65108155 4.67298906,2.14420313 6.50026897,2.14285704 C8.32785701,2.14151073 9.85440098,2.64826202 11.0949587,3.66268776 C11.3368923,3.86050498 11.4219169,4.19021737 11.3053359,4.47846706 L10.8591612,5.58164619 C10.7850925,5.76478316 10.8751593,5.97262974 11.0603311,6.04588453 C11.245503,6.11913932 11.455659,6.03006221 11.5297277,5.84692524 L11.9759024,4.74374612 C12.209064,4.16724762 12.0390122,3.50781196 11.5551544,3.11218533 C10.1805798,1.98817167 8.49041574,1.42710507 6.49973103,1.42857153 C4.51002698,1.43003726 2.82065134,1.99101747 1.44648849,3.11198613 C0.961701259,3.50744966 0.791064633,4.16753143 1.02444076,4.74459449 L1.47027231,5.84692524 C1.54434104,6.03006221 1.75449703,6.11913932 1.93966886,6.04588453 C2.12484068,5.97262974 2.21490754,5.76478316 2.14083881,5.58164619 Z"/><path d="M9.36752351,2.67005721 C9.92210951,3.02198515 9.85701952,3.8129346 9.0094759,5.16939984 C8.90463621,5.33719226 8.95718084,5.5572703 9.12683762,5.6609579 C9.2964944,5.7646455 9.51901775,5.71267829 9.62385743,5.54488587 C10.6517102,3.89984184 10.750531,2.69900836 9.75754211,2.06887971 C9.58968696,1.96236257 9.36630485,2.01059154 9.25860419,2.17660212 C9.15090352,2.3426127 9.19966836,2.56354007 9.36752351,2.67005721 Z"/><path d="M3.63293946,2.67005721 C3.07835346,3.02198515 3.14344345,3.8129346 3.99098707,5.16939984 C4.09582676,5.33719226 4.04328212,5.5572703 3.87362535,5.6609579 C3.70396857,5.7646455 3.48144522,5.71267829 3.37660553,5.54488587 C2.34875275,3.89984184 2.24993198,2.69900836 3.24292086,2.06887971 C3.410776,1.96236257 3.63415812,2.01059154 3.74185878,2.17660212 C3.84955945,2.3426127 3.8007946,2.56354007 3.63293946,2.67005721 Z"/><path d="M6.13888889,1.78571429 L6.13888889,5.35714286 C6.13888889,5.55438741 6.30056384,5.71428571 6.5,5.71428571 C6.69943616,5.71428571 6.86111111,5.55438741 6.86111111,5.35714286 L6.86111111,1.78571429 C6.86111111,1.58846973 6.69943616,1.42857143 6.5,1.42857143 C6.30056384,1.42857143 6.13888889,1.58846973 6.13888889,1.78571429 Z"/><ellipse cx="6.5" cy="1.42857143" rx="1" ry="1"/><path d="M2.16666667,7.14285714 L1.44444444,5.71428571 C3.04435352,5.23292336 4.72953871,4.99400677 6.5,4.99753594 C8.27046129,5.00106511 9.95564648,5.2399817 11.5555556,5.71428571 L10.8333333,7.14285714 L10.8333333,7.85714286 L2.16666667,7.85714286 L2.16666667,7.14285714 Z"/></g></g></g></g><text x="0" y="56" fill="#000000" font-size="5px" font-weight="bold" font-family="'Helvetica Neue', Helvetica, Arial-Unicode, Arial, Sans-serif">Created by Xinh Studio</text><text x="0" y="61" fill="#000000" font-size="5px" font-weight="bold" font-family="'Helvetica Neue', Helvetica, Arial-Unicode, Arial, Sans-serif">from the Noun Project</text></svg>