<svg xmlns="http://www.w3.org/2000/svg" version="1.1" viewBox="-5.0 -10.0 110.0 135.0">
 <path d="m23.035 36.719c-0.058594 0-0.11719-0.003906-0.17578-0.007812-1.293-0.09375-2.2617-1.2188-2.1641-2.5078l1.9688-26.562c0.09375-1.293 1.2227-2.2539 2.5078-2.1641 1.293 0.09375 2.2617 1.2188 2.1641 2.5078l-1.9648 26.562c-0.09375 1.2344-1.1211 2.1719-2.3359 2.1719z"/>
 <path d="m18.754 94.531c-0.058594 0-0.11719-0.003906-0.17578-0.007812-1.293-0.09375-2.2617-1.2188-2.1641-2.5078l3.3594-45.312c0.09375-1.293 1.2109-2.2539 2.5078-2.1641 1.293 0.09375 2.2617 1.2188 2.1641 2.5078l-3.3594 45.312c-0.089844 1.2344-1.1172 2.1719-2.332 2.1719z"/>
 <path d="m76.273 27.344h-52.547c-1.293 0-2.3438-1.0508-2.3438-2.3438s1.0508-2.3438 2.3438-2.3438h52.547c1.293 0 2.3438 1.0508 2.3438 2.3438s-1.0508 2.3438-2.3438 2.3438z"/>
 <path d="m76.965 36.719c-1.2148 0-2.2422-0.9375-2.3359-2.1719l-1.9648-26.562c-0.097656-1.2891 0.87109-2.4141 2.1602-2.5078 1.3125-0.078124 2.418 0.87109 2.5117 2.1641l1.9688 26.562c0.097656 1.2891-0.87109 2.4141-2.1641 2.5078-0.058594 0.003906-0.11719 0.007812-0.17578 0.007812z"/>
 <path d="m81.246 94.531c-1.2148 0-2.2422-0.9375-2.332-2.1719l-3.3633-45.312c-0.09375-1.2891 0.875-2.4141 2.1641-2.5078 1.3164-0.074218 2.418 0.87109 2.5117 2.1641l3.3594 45.312c0.097656 1.2891-0.87109 2.4141-2.1602 2.5078-0.0625 0.003906-0.12109 0.007812-0.17969 0.007812z"/>
 <path d="m79.391 69.531h-58.781c-1.293 0-2.3438-1.0508-2.3438-2.3438s1.0508-2.3438 2.3438-2.3438h58.781c1.293 0 2.3438 1.0508 2.3438 2.3438s-1.0508 2.3438-2.3438 2.3438z"/>
 <path d="m85.762 36.719c-1.1758 0-2.1914-0.88672-2.3281-2.0859l-2.7188-24.477h-61.43l-1.8516 16.664c-0.14453 1.2891-1.3125 2.2148-2.5898 2.0703-1.2852-0.14062-2.2148-1.3008-2.0703-2.5859l2.0859-18.75c0.13281-1.1875 1.1328-2.0859 2.3281-2.0859h65.625c1.1953 0 2.1992 0.89844 2.332 2.0859l2.9492 26.562c0.14453 1.2852-0.78125 2.4453-2.0703 2.5859-0.085938 0.011719-0.17578 0.015625-0.26172 0.015625z"/>
 <path d="m92.188 94.531h-84.375c-0.66797 0-1.3008-0.28516-1.7461-0.78125-0.44531-0.49609-0.65625-1.1602-0.58203-1.8203l5.0312-45.312c0.14062-1.2891 1.3125-2.2148 2.5859-2.0703 1.2891 0.14062 2.2148 1.3008 2.0703 2.5859l-4.7422 42.711h79.141l-3.7031-33.336c-0.14063-1.2852 0.78516-2.4453 2.0703-2.5859 1.2852-0.14453 2.4453 0.78125 2.5898 2.0703l3.9883 35.938c0.074219 0.66016-0.13672 1.3242-0.58203 1.8203-0.44531 0.49609-1.0781 0.78125-1.7461 0.78125z"/>
 <path d="m50 69.531c-1.293 0-2.3438-1.0508-2.3438-2.3438v-20.312c0-1.2969 1.0508-2.3438 2.3438-2.3438s2.3438 1.0469 2.3438 2.3438v20.312c0 1.293-1.0508 2.3438-2.3438 2.3438z"/>
 <path d="m50 36.719c-1.293 0-2.3438-1.0508-2.3438-2.3438v-9.375c0-1.293 1.0508-2.3438 2.3438-2.3438s2.3438 1.0508 2.3438 2.3438v9.375c0 1.293-1.0508 2.3438-2.3438 2.3438z"/>
 <path d="m92.188 49.219h-84.375c-1.293 0-2.3438-1.0508-2.3438-2.3438v-12.5c0-1.293 1.0508-2.3438 2.3438-2.3438h84.375c1.293 0 2.3438 1.0508 2.3438 2.3438v12.5c0 1.293-1.0508 2.3438-2.3438 2.3438zm-82.031-4.6875h79.688v-7.8125h-79.688z"/>
<text x="0.0" y="117.5" font-size="5.0" font-weight="bold" font-family="Arbeit Regular, Helvetica, Arial-Unicode, Arial, Sans-serif" fill="#000000">Created by Eklip Studio</text><text x="0.0" y="122.5" font-size="5.0" font-weight="bold" font-family="Arbeit Regular, Helvetica, Arial-Unicode, Arial, Sans-serif" fill="#000000">from Noun Project</text></svg>